<svg xmlns="http://www.w3.org/2000/svg" viewBox="0 0 940 524" width="940" height="524"><rect width="940" height="524" fill="#ffffff"/><text x="470.0" y="30.0" font-family="Segoe UI,Helvetica Neue,Arial,sans-serif" font-size="16.0" fill="#2f5d2f" xml:space="preserve" text-anchor="middle" font-weight="700">Where the camera counts are</text><text x="470.0" y="49.0" font-family="Segoe UI,Helvetica Neue,Arial,sans-serif" font-size="11.5" fill="#5c655c" xml:space="preserve" text-anchor="middle">one reference and one sample capture, and the four windows the metrics read</text><rect x="80.0" y="66.0" width="820.0" height="306.0" fill="#ffffff" stroke="#b9c1b9"/><line x1="114.2" y1="66.0" x2="114.2" y2="372.0" stroke="#e8ece8" stroke-width="0.7"/><text x="114.2" y="388.0" font-family="Segoe UI,Helvetica Neue,Arial,sans-serif" font-size="11.0" fill="#5c655c" xml:space="preserve" text-anchor="middle">450</text><line x1="199.6" y1="66.0" x2="199.6" y2="372.0" stroke="#e8ece8" stroke-width="0.7"/><text x="199.6" y="388.0" font-family="Segoe UI,Helvetica Neue,Arial,sans-serif" font-size="11.0" fill="#5c655c" xml:space="preserve" text-anchor="middle">470</text><line x1="285.0" y1="66.0" x2="285.0" y2="372.0" stroke="#e8ece8" stroke-width="0.7"/><text x="285.0" y="388.0" font-family="Segoe UI,Helvetica Neue,Arial,sans-serif" font-size="11.0" fill="#5c655c" xml:space="preserve" text-anchor="middle">490</text><line x1="370.4" y1="66.0" x2="370.4" y2="372.0" stroke="#e8ece8" stroke-width="0.7"/><text x="370.4" y="388.0" font-family="Segoe UI,Helvetica Neue,Arial,sans-serif" font-size="11.0" fill="#5c655c" xml:space="preserve" text-anchor="middle">510</text><line x1="455.8" y1="66.0" x2="455.8" y2="372.0" stroke="#e8ece8" stroke-width="0.7"/><text x="455.8" y="388.0" font-family="Segoe UI,Helvetica Neue,Arial,sans-serif" font-size="11.0" fill="#5c655c" xml:space="preserve" text-anchor="middle">530</text><line x1="541.2" y1="66.0" x2="541.2" y2="372.0" stroke="#e8ece8" stroke-width="0.7"/><text x="541.2" y="388.0" font-family="Segoe UI,Helvetica Neue,Arial,sans-serif" font-size="11.0" fill="#5c655c" xml:space="preserve" text-anchor="middle">550</text><line x1="626.7" y1="66.0" x2="626.7" y2="372.0" stroke="#e8ece8" stroke-width="0.7"/><text x="626.7" y="388.0" font-family="Segoe UI,Helvetica Neue,Arial,sans-serif" font-size="11.0" fill="#5c655c" xml:space="preserve" text-anchor="middle">570</text><line x1="712.1" y1="66.0" x2="712.1" y2="372.0" stroke="#e8ece8" stroke-width="0.7"/><text x="712.1" y="388.0" font-family="Segoe UI,Helvetica Neue,Arial,sans-serif" font-size="11.0" fill="#5c655c" xml:space="preserve" text-anchor="middle">590</text><line x1="797.5" y1="66.0" x2="797.5" y2="372.0" stroke="#e8ece8" stroke-width="0.7"/><text x="797.5" y="388.0" font-family="Segoe UI,Helvetica Neue,Arial,sans-serif" font-size="11.0" fill="#5c655c" xml:space="preserve" text-anchor="middle">610</text><line x1="882.9" y1="66.0" x2="882.9" y2="372.0" stroke="#e8ece8" stroke-width="0.7"/><text x="882.9" y="388.0" font-family="Segoe UI,Helvetica Neue,Arial,sans-serif" font-size="11.0" fill="#5c655c" xml:space="preserve" text-anchor="middle">630</text><line x1="80.0" y1="372.0" x2="900.0" y2="372.0" stroke="#e8ece8" stroke-width="0.7"/><text x="72.0" y="376.0" font-family="Segoe UI,Helvetica Neue,Arial,sans-serif" font-size="11.0" fill="#5c655c" xml:space="preserve" text-anchor="end">0</text><line x1="80.0" y1="313.2" x2="900.0" y2="313.2" stroke="#e8ece8" stroke-width="0.7"/><text x="72.0" y="317.2" font-family="Segoe UI,Helvetica Neue,Arial,sans-serif" font-size="11.0" fill="#5c655c" xml:space="preserve" text-anchor="end">50</text><line x1="80.0" y1="254.3" x2="900.0" y2="254.3" stroke="#e8ece8" stroke-width="0.7"/><text x="72.0" y="258.3" font-family="Segoe UI,Helvetica Neue,Arial,sans-serif" font-size="11.0" fill="#5c655c" xml:space="preserve" text-anchor="end">100</text><line x1="80.0" y1="195.5" x2="900.0" y2="195.5" stroke="#e8ece8" stroke-width="0.7"/><text x="72.0" y="199.5" font-family="Segoe UI,Helvetica Neue,Arial,sans-serif" font-size="11.0" fill="#5c655c" xml:space="preserve" text-anchor="end">150</text><line x1="80.0" y1="136.6" x2="900.0" y2="136.6" stroke="#e8ece8" stroke-width="0.7"/><text x="72.0" y="140.6" font-family="Segoe UI,Helvetica Neue,Arial,sans-serif" font-size="11.0" fill="#5c655c" xml:space="preserve" text-anchor="end">200</text><line x1="80.0" y1="77.8" x2="900.0" y2="77.8" stroke="#e8ece8" stroke-width="0.7"/><text x="72.0" y="81.8" font-family="Segoe UI,Helvetica Neue,Arial,sans-serif" font-size="11.0" fill="#5c655c" xml:space="preserve" text-anchor="end">250</text><text x="490.0" y="408.0" font-family="Segoe UI,Helvetica Neue,Arial,sans-serif" font-size="11.5" fill="#5c655c" xml:space="preserve" text-anchor="middle">wavelength (nm)</text><g transform="translate(34.0,219.0) rotate(-90)"><text x="0.0" y="0.0" font-family="Segoe UI,Helvetica Neue,Arial,sans-serif" font-size="11.5" fill="#5c655c" xml:space="preserve" text-anchor="middle">camera DN</text></g><rect x="105.6" y="66.0" width="51.2" height="306.0" fill="#3a5fa8" opacity="0.13"/><text x="131.2" y="62.0" font-family="Segoe UI,Helvetica Neue,Arial,sans-serif" font-size="10.5" fill="#3a5fa8" xml:space="preserve" text-anchor="middle" font-weight="700">Soret</text><rect x="327.7" y="66.0" width="256.3" height="306.0" fill="#5c655c" opacity="0.13"/><text x="455.8" y="62.0" font-family="Segoe UI,Helvetica Neue,Arial,sans-serif" font-size="10.5" fill="#5c655c" xml:space="preserve" text-anchor="middle" font-weight="700">valley</text><rect x="605.3" y="66.0" width="64.1" height="306.0" fill="#3f7d3f" opacity="0.13"/><text x="637.3" y="62.0" font-family="Segoe UI,Helvetica Neue,Arial,sans-serif" font-size="10.5" fill="#3f7d3f" xml:space="preserve" text-anchor="middle" font-weight="700">Q</text><rect x="848.8" y="66.0" width="21.4" height="306.0" fill="#b03a3a" opacity="0.13"/><text x="859.4" y="62.0" font-family="Segoe UI,Helvetica Neue,Arial,sans-serif" font-size="10.5" fill="#b03a3a" xml:space="preserve" text-anchor="middle" font-weight="700">red</text><polyline points="80.5,157.8 81.1,157.8 81.7,157.8 82.4,156.6 83.0,156.6 83.6,156.6 84.2,156.6 84.8,155.4 85.4,156.6 86.0,155.4 86.7,156.6 87.3,156.6 87.9,156.6 88.5,156.6 89.1,155.4 89.7,156.6 90.3,156.6 90.9,155.4 91.6,155.4 92.2,156.6 92.8,155.4 93.4,155.4 94.0,155.4 94.6,155.4 95.2,155.4 95.9,155.4 96.5,155.4 97.1,155.4 97.7,155.4 98.3,155.4 98.9,155.4 99.6,155.4 100.2,155.4 100.8,155.4 101.4,154.3 102.0,155.4 102.6,154.3 103.2,154.3 103.9,153.1 104.5,154.3 105.1,154.3 105.7,154.3 106.3,153.1 106.9,153.1 107.6,153.1 108.2,153.1 108.8,151.9 109.4,151.9 110.0,151.9 110.6,151.9 111.3,150.7 111.9,150.7 112.5,150.7 113.1,150.7 113.7,149.6 114.3,149.6 115.0,148.4 115.6,149.6 116.2,148.4 116.8,148.4 117.4,148.4 118.0,148.4 118.7,147.2 119.3,147.2 119.9,147.2 120.5,147.2 121.1,144.9 121.7,144.9 122.4,143.7 123.0,143.7 123.6,144.9 124.2,144.9 124.8,144.9 125.4,144.9 126.1,142.5 126.7,143.7 127.3,143.7 127.9,143.7 128.5,143.7 129.2,143.7 129.8,143.7 130.4,143.7 131.0,143.7 131.6,143.7 132.2,143.7 132.9,143.7 133.5,144.9 134.1,144.9 134.7,146.0 135.3,146.0 136.0,148.4 136.6,148.4 137.2,148.4 137.8,148.4 138.4,148.4 139.1,148.4 139.7,149.6 140.3,149.6 140.9,150.7 141.5,150.7 142.2,151.9 142.8,151.9 143.4,151.9 144.0,151.9 144.6,153.1 145.3,151.9 145.9,154.3 146.5,154.3 147.1,154.3 147.7,154.3 148.4,155.4 149.0,155.4 149.6,155.4 150.2,155.4 150.8,157.8 151.5,157.8 152.1,159.0 152.7,159.0 153.3,159.0 153.9,159.0 154.6,159.0 155.2,159.0 155.8,161.3 156.4,161.3 157.0,161.3 157.7,161.3 158.3,162.5 158.9,162.5 159.5,163.7 160.2,163.7 160.8,163.7 161.4,163.7 162.0,162.5 162.6,162.5 163.3,162.5 163.9,162.5 164.5,162.5 165.1,162.5 165.7,162.5 166.4,162.5 167.0,162.5 167.6,161.3 168.2,161.3 168.9,161.3 169.5,161.3 170.1,161.3 170.7,162.5 171.3,162.5 172.0,162.5 172.6,162.5 173.2,162.5 173.8,162.5 174.5,163.7 175.1,163.7 175.7,163.7 176.3,162.5 177.0,162.5 177.6,161.3 178.2,160.2 178.8,160.2 179.4,159.0 180.1,159.0 180.7,157.8 181.3,156.6 181.9,156.6 182.6,155.4 183.2,155.4 183.8,154.3 184.4,154.3 185.1,153.1 185.7,153.1 186.3,150.7 186.9,150.7 187.6,149.6 188.2,149.6 188.8,148.4 189.4,150.7 190.0,150.7 190.7,150.7 191.3,149.6 191.9,149.6 192.5,148.4 193.2,148.4 193.8,146.0 194.4,147.2 195.0,144.9 195.7,144.9 196.3,143.7 196.9,144.9 197.5,143.7 198.2,142.5 198.8,142.5 199.4,144.9 200.0,143.7 200.7,144.9 201.3,142.5 201.9,143.7 202.5,142.5 203.2,142.5 203.8,141.3 204.4,141.3 205.0,141.3 205.7,137.8 206.3,136.6 206.9,97.8 207.5,95.4 208.2,86.0 208.8,86.0 209.4,86.0 210.0,84.8 210.7,86.0 211.3,86.0 211.9,87.2 212.6,86.0 213.2,89.5 213.8,88.4 214.4,89.5 215.1,87.2 215.7,89.5 216.3,88.4 216.9,89.5 217.6,88.4 218.2,94.2 218.8,93.1 219.4,94.2 220.1,93.1 220.7,97.8 221.3,97.8 221.9,101.3 222.6,100.1 223.2,106.0 223.8,106.0 224.5,107.2 225.1,106.0 225.7,107.2 226.3,106.0 227.0,106.0 227.6,106.0 228.2,108.4 228.8,108.4 229.5,110.7 230.1,109.5 230.7,110.7 231.3,110.7 232.0,113.1 232.6,111.9 233.2,117.8 233.9,117.8 234.5,119.0 235.1,119.0 235.7,121.3 236.4,120.1 237.0,121.3 237.6,120.1 238.3,122.5 238.9,122.5 239.5,124.8 240.1,124.8 240.8,126.0 241.4,126.0 242.0,129.6 242.6,129.6 243.3,130.7 243.9,130.7 244.5,131.9 245.2,131.9 245.8,133.1 246.4,133.1 247.0,134.3 247.7,134.3 248.3,135.4 248.9,135.4 249.6,136.6 250.2,136.6 250.8,137.8 251.4,137.8 252.1,141.3 252.7,140.1 253.3,141.3 254.0,141.3 254.6,143.7 255.2,142.5 255.8,144.9 256.5,144.9 257.1,147.2 257.7,147.2 258.4,148.4 259.0,148.4 259.6,149.6 260.2,149.6 260.9,150.7 261.5,150.7 262.1,150.7 262.8,150.7 263.4,150.7 264.0,149.6 264.6,149.6 265.3,149.6 265.9,148.4 266.5,148.4 267.2,147.2 267.8,147.2 268.4,146.0 269.1,146.0 269.7,146.0 270.3,146.0 270.9,144.9 271.6,144.9 272.2,143.7 272.8,143.7 273.5,142.5 274.1,142.5 274.7,142.5 275.3,142.5 276.0,141.3 276.6,141.3 277.2,140.1 277.9,140.1 278.5,139.0 279.1,140.1 279.8,139.0 280.4,139.0 281.0,139.0 281.6,137.8 282.3,137.8 282.9,137.8 283.5,136.6 284.2,136.6 284.8,136.6 285.4,136.6 286.1,136.6 286.7,136.6 287.3,137.8 288.0,137.8 288.6,136.6 289.2,136.6 289.8,136.6 290.5,136.6 291.1,135.4 291.7,135.4 292.4,134.3 293.0,134.3 293.6,135.4 294.3,135.4 294.9,134.3 295.5,134.3 296.1,134.3 296.8,134.3 297.4,134.3 298.0,133.1 298.7,133.1 299.3,134.3 299.9,134.3 300.6,133.1 301.2,133.1 301.8,133.1 302.5,133.1 303.1,133.1 303.7,133.1 304.4,133.1 305.0,133.1 305.6,133.1 306.2,133.1 306.9,131.9 307.5,131.9 308.1,131.9 308.8,131.9 309.4,131.9 310.0,131.9 310.7,131.9 311.3,131.9 311.9,131.9 312.6,131.9 313.2,131.9 313.8,131.9 314.5,131.9 315.1,131.9 315.7,131.9 316.3,130.7 317.0,130.7 317.6,130.7 318.2,130.7 318.9,130.7 319.5,130.7 320.1,130.7 320.8,130.7 321.4,130.7 322.0,130.7 322.7,130.7 323.3,130.7 323.9,130.7 324.6,130.7 325.2,130.7 325.8,130.7 326.5,129.6 327.1,130.7 327.7,129.6 328.3,129.6 329.0,129.6 329.6,129.6 330.2,129.6 330.9,129.6 331.5,129.6 332.1,129.6 332.8,128.4 333.4,128.4 334.0,128.4 334.7,128.4 335.3,128.4 335.9,128.4 336.6,128.4 337.2,128.4 337.8,128.4 338.5,128.4 339.1,128.4 339.7,128.4 340.4,128.4 341.0,127.2 341.6,127.2 342.3,128.4 342.9,128.4 343.5,127.2 344.2,127.2 344.8,127.2 345.4,127.2 346.0,127.2 346.7,127.2 347.3,127.2 347.9,127.2 348.6,127.2 349.2,127.2 349.8,127.2 350.5,126.0 351.1,126.0 351.7,126.0 352.4,126.0 353.0,126.0 353.6,127.2 354.3,126.0 354.9,127.2 355.5,126.0 356.2,126.0 356.8,126.0 357.4,126.0 358.1,126.0 358.7,126.0 359.3,126.0 360.0,126.0 360.6,126.0 361.2,126.0 361.9,126.0 362.5,124.8 363.1,124.8 363.8,124.8 364.4,124.8 365.0,124.8 365.7,124.8 366.3,126.0 366.9,124.8 367.6,126.0 368.2,124.8 368.8,124.8 369.5,124.8 370.1,124.8 370.7,124.8 371.4,124.8 372.0,124.8 372.6,124.8 373.3,124.8 373.9,124.8 374.5,124.8 375.2,124.8 375.8,124.8 376.4,123.7 377.1,124.8 377.7,124.8 378.3,124.8 379.0,124.8 379.6,124.8 380.2,124.8 380.9,124.8 381.5,124.8 382.1,124.8 382.7,124.8 383.4,124.8 384.0,124.8 384.6,124.8 385.3,124.8 385.9,124.8 386.5,124.8 387.2,124.8 387.8,124.8 388.4,124.8 389.1,124.8 389.7,124.8 390.3,124.8 391.0,124.8 391.6,126.0 392.2,124.8 392.9,126.0 393.5,124.8 394.1,126.0 394.8,126.0 395.4,126.0 396.0,124.8 396.7,126.0 397.3,126.0 397.9,126.0 398.6,126.0 399.2,126.0 399.8,126.0 400.5,126.0 401.1,126.0 401.7,127.2 402.4,127.2 403.0,127.2 403.6,127.2 404.3,127.2 404.9,127.2 405.5,127.2 406.2,127.2 406.8,127.2 407.4,127.2 408.1,127.2 408.7,127.2 409.3,127.2 410.0,127.2 410.6,127.2 411.2,128.4 411.9,128.4 412.5,128.4 413.1,128.4 413.8,129.6 414.4,128.4 415.0,129.6 415.7,129.6 416.3,129.6 416.9,129.6 417.6,128.4 418.2,128.4 418.8,128.4 419.5,128.4 420.1,128.4 420.7,128.4 421.4,129.6 422.0,129.6 422.6,129.6 423.3,129.6 423.9,129.6 424.5,129.6 425.2,129.6 425.8,129.6 426.4,129.6 427.1,129.6 427.7,129.6 428.3,129.6 429.0,129.6 429.6,129.6 430.2,129.6 430.9,129.6 431.5,130.7 432.1,130.7 432.8,130.7 433.4,130.7 434.0,129.6 434.7,130.7 435.3,130.7 435.9,130.7 436.6,130.7 437.2,130.7 437.8,130.7 438.5,130.7 439.1,130.7 439.7,130.7 440.4,131.9 441.0,131.9 441.6,131.9 442.3,131.9 442.9,131.9 443.5,131.9 444.2,131.9 444.8,131.9 445.4,131.9 446.1,131.9 446.7,131.9 447.3,131.9 448.0,131.9 448.6,131.9 449.2,131.9 449.9,131.9 450.5,131.9 451.1,131.9 451.8,131.9 452.4,131.9 453.0,131.9 453.7,131.9 454.3,131.9 454.9,131.9 455.6,133.1 456.2,133.1 456.8,131.9 457.5,131.9 458.1,131.9 458.7,131.9 459.3,131.9 460.0,131.9 460.6,131.9 461.2,131.9 461.9,131.9 462.5,131.9 463.1,131.9 463.8,131.9 464.4,131.9 465.0,131.9 465.7,131.9 466.3,131.9 466.9,131.9 467.6,131.9 468.2,131.9 468.8,131.9 469.5,131.9 470.1,131.9 470.7,131.9 471.4,131.9 472.0,131.9 472.6,131.9 473.3,131.9 473.9,131.9 474.5,131.9 475.2,131.9 475.8,131.9 476.4,131.9 477.1,131.9 477.7,133.1 478.3,131.9 479.0,133.1 479.6,133.1 480.2,133.1 480.9,133.1 481.5,133.1 482.1,133.1 482.7,133.1 483.4,133.1 484.0,133.1 484.6,133.1 485.3,133.1 485.9,133.1 486.5,133.1 487.2,133.1 487.8,133.1 488.4,133.1 489.1,133.1 489.7,133.1 490.3,134.3 491.0,134.3 491.6,134.3 492.2,134.3 492.9,134.3 493.5,134.3 494.1,134.3 494.8,134.3 495.4,134.3 496.0,134.3 496.7,134.3 497.3,134.3 497.9,134.3 498.5,134.3 499.2,134.3 499.8,134.3 500.4,134.3 501.1,134.3 501.7,133.1 502.3,134.3 503.0,134.3 503.6,134.3 504.2,134.3 504.9,134.3 505.5,134.3 506.1,134.3 506.8,134.3 507.4,134.3 508.0,134.3 508.7,134.3 509.3,135.4 509.9,135.4 510.5,135.4 511.2,135.4 511.8,136.6 512.4,136.6 513.1,136.6 513.7,136.6 514.3,136.6 515.0,137.8 515.6,137.8 516.2,137.8 516.9,137.8 517.5,137.8 518.1,137.8 518.8,137.8 519.4,139.0 520.0,139.0 520.6,139.0 521.3,139.0 521.9,140.1 522.5,140.1 523.2,140.1 523.8,140.1 524.4,140.1 525.1,140.1 525.7,140.1 526.3,141.3 527.0,141.3 527.6,141.3 528.2,141.3 528.8,141.3 529.5,141.3 530.1,141.3 530.7,141.3 531.4,142.5 532.0,142.5 532.6,142.5 533.3,142.5 533.9,142.5 534.5,143.7 535.1,143.7 535.8,143.7 536.4,143.7 537.0,143.7 537.7,143.7 538.3,143.7 538.9,143.7 539.6,143.7 540.2,144.9 540.8,143.7 541.4,144.9 542.1,144.9 542.7,144.9 543.3,144.9 544.0,146.0 544.6,146.0 545.2,146.0 545.9,146.0 546.5,146.0 547.1,146.0 547.7,147.2 548.4,147.2 549.0,147.2 549.6,147.2 550.3,147.2 550.9,148.4 551.5,149.6 552.2,149.6 552.8,149.6 553.4,149.6 554.0,149.6 554.7,149.6 555.3,150.7 555.9,150.7 556.6,150.7 557.2,150.7 557.8,151.9 558.4,151.9 559.1,151.9 559.7,153.1 560.3,153.1 561.0,153.1 561.6,153.1 562.2,154.3 562.8,154.3 563.5,154.3 564.1,155.4 564.7,155.4 565.4,155.4 566.0,156.6 566.6,155.4 567.3,155.4 567.9,156.6 568.5,156.6 569.1,156.6 569.8,156.6 570.4,157.8 571.0,157.8 571.6,157.8 572.3,157.8 572.9,159.0 573.5,159.0 574.2,159.0 574.8,159.0 575.4,159.0 576.0,159.0 576.7,160.2 577.3,160.2 577.9,160.2 578.6,161.3 579.2,161.3 579.8,161.3 580.4,161.3 581.1,161.3 581.7,162.5 582.3,162.5 583.0,162.5 583.6,162.5 584.2,162.5 584.8,163.7 585.5,163.7 586.1,163.7 586.7,164.9 587.3,164.9 588.0,166.0 588.6,166.0 589.2,166.0 589.9,166.0 590.5,167.2 591.1,167.2 591.7,167.2 592.4,168.4 593.0,169.6 593.6,169.6 594.2,170.7 594.9,170.7 595.5,171.9 596.1,171.9 596.8,173.1 597.4,173.1 598.0,174.3 598.6,174.3 599.3,174.3 599.9,175.5 600.5,176.6 601.1,176.6 601.8,176.6 602.4,177.8 603.0,177.8 603.6,179.0 604.3,180.2 604.9,180.2 605.5,181.3 606.1,181.3 606.8,182.5 607.4,182.5 608.0,182.5 608.6,182.5 609.3,183.7 609.9,183.7 610.5,184.9 611.2,183.7 611.8,184.9 612.4,184.9 613.0,184.9 613.7,186.0 614.3,186.0 614.9,187.2 615.5,187.2 616.2,187.2 616.8,188.4 617.4,188.4 618.0,188.4 618.7,188.4 619.3,188.4 619.9,189.6 620.5,189.6 621.2,189.6 621.8,190.8 622.4,190.8 623.0,191.9 623.7,191.9 624.3,193.1 624.9,193.1 625.5,193.1 626.2,193.1 626.8,194.3 627.4,194.3 628.0,195.5 628.7,195.5 629.3,196.6 629.9,196.6 630.5,197.8 631.1,197.8 631.8,197.8 632.4,197.8 633.0,199.0 633.6,199.0 634.3,200.2 634.9,201.3 635.5,202.5 636.1,202.5 636.8,203.7 637.4,203.7 638.0,204.9 638.6,204.9 639.3,207.2 639.9,207.2 640.5,208.4 641.1,208.4 641.7,209.6 642.4,209.6 643.0,211.9 643.6,211.9 644.2,213.1 644.9,213.1 645.5,214.3 646.1,214.3 646.7,215.5 647.4,215.5 648.0,216.6 648.6,217.8 649.2,217.8 649.8,217.8 650.5,219.0 651.1,219.0 651.7,220.2 652.3,220.2 653.0,222.5 653.6,222.5 654.2,223.7 654.8,223.7 655.4,224.9 656.1,224.9 656.7,226.1 657.3,226.1 657.9,228.4 658.6,228.4 659.2,229.6 659.8,229.6 660.4,231.9 661.0,230.8 661.7,233.1 662.3,231.9 662.9,235.5 663.5,235.5 664.1,236.7 664.8,236.7 665.4,237.8 666.0,237.8 666.6,239.0 667.3,239.0 667.9,241.4 668.5,242.5 669.1,242.5 669.7,242.5 670.4,242.5 671.0,242.5 671.6,242.5 672.2,242.5 672.8,236.7 673.5,236.7 674.1,234.3 674.7,234.3 675.3,230.8 675.9,230.8 676.6,227.2 677.2,227.2 677.8,222.5 678.4,222.5 679.0,220.2 679.7,220.2 680.3,217.8 680.9,217.8 681.5,215.5 682.1,215.5 682.8,211.9 683.4,211.9 684.0,209.6 684.6,209.6 685.2,208.4 685.8,208.4 686.5,204.9 687.1,204.9 687.7,202.5 688.3,202.5 688.9,201.3 689.6,201.3 690.2,200.2 690.8,200.2 691.4,197.8 692.0,197.8 692.7,196.6 693.3,197.8 693.9,195.5 694.5,195.5 695.1,194.3 695.7,194.3 696.4,191.9 697.0,191.9 697.6,190.8 698.2,190.8 698.8,189.6 699.4,189.6 700.1,189.6 700.7,189.6 701.3,187.2 701.9,187.2 702.5,187.2 703.2,187.2 703.8,186.0 704.4,186.0 705.0,184.9 705.6,184.9 706.2,182.5 706.9,182.5 707.5,182.5 708.1,182.5 708.7,181.3 709.3,181.3 709.9,181.3 710.6,181.3 711.2,180.2 711.8,180.2 712.4,180.2 713.0,180.2 713.6,180.2 714.2,180.2 714.9,179.0 715.5,180.2 716.1,179.0 716.7,179.0 717.3,177.8 717.9,179.0 718.6,177.8 719.2,179.0 719.8,176.6 720.4,177.8 721.0,176.6 721.6,177.8 722.2,177.8 722.9,177.8 723.5,177.8 724.1,177.8 724.7,177.8 725.3,177.8 725.9,176.6 726.5,176.6 727.2,176.6 727.8,177.8 728.4,177.8 729.0,179.0 729.6,177.8 730.2,177.8 730.8,177.8 731.5,177.8 732.1,177.8 732.7,177.8 733.3,177.8 733.9,177.8 734.5,177.8 735.1,177.8 735.8,179.0 736.4,179.0 737.0,180.2 737.6,180.2 738.2,180.2 738.8,180.2 739.4,179.0 740.0,180.2 740.7,179.0 741.3,180.2 741.9,180.2 742.5,180.2 743.1,180.2 743.7,180.2 744.3,179.0 744.9,179.0 745.6,179.0 746.2,180.2 746.8,180.2 747.4,180.2 748.0,179.0 748.6,180.2 749.2,179.0 749.8,179.0 750.4,179.0 751.1,179.0 751.7,179.0 752.3,179.0 752.9,179.0 753.5,179.0 754.1,177.8 754.7,177.8 755.3,177.8 755.9,177.8 756.6,177.8 757.2,177.8 757.8,177.8 758.4,177.8 759.0,176.6 759.6,176.6 760.2,176.6 760.8,177.8 761.4,177.8 762.0,179.0 762.7,177.8 763.3,179.0 763.9,179.0 764.5,179.0 765.1,179.0 765.7,179.0 766.3,179.0 766.9,179.0 767.5,179.0 768.1,180.2 768.7,180.2 769.4,180.2 770.0,180.2 770.6,180.2 771.2,180.2 771.8,180.2 772.4,181.3 773.0,181.3 773.6,181.3 774.2,181.3 774.8,181.3 775.4,182.5 776.0,182.5 776.7,182.5 777.3,182.5 777.9,183.7 778.5,183.7 779.1,183.7 779.7,184.9 780.3,184.9 780.9,184.9 781.5,184.9 782.1,184.9 782.7,184.9 783.3,184.9 783.9,186.0 784.5,186.0 785.2,186.0 785.8,186.0 786.4,186.0 787.0,186.0 787.6,186.0 788.2,187.2 788.8,188.4 789.4,188.4 790.0,188.4 790.6,188.4 791.2,189.6 791.8,189.6 792.4,189.6 793.0,189.6 793.6,189.6 794.2,190.8 794.8,191.9 795.5,191.9 796.1,191.9 796.7,196.6 797.3,196.6 797.9,206.1 798.5,204.9 799.1,209.6 799.7,209.6 800.3,211.9 800.9,211.9 801.5,213.1 802.1,213.1 802.7,213.1 803.3,214.3 803.9,215.5 804.5,215.5 805.1,215.5 805.7,216.6 806.3,215.5 806.9,216.6 807.5,216.6 808.1,216.6 808.7,217.8 809.3,217.8 809.9,217.8 810.5,217.8 811.1,217.8 811.8,217.8 812.4,219.0 813.0,219.0 813.6,219.0 814.2,219.0 814.8,219.0 815.4,220.2 816.0,220.2 816.6,220.2 817.2,220.2 817.8,220.2 818.4,220.2 819.0,221.4 819.6,221.4 820.2,221.4 820.8,221.4 821.4,221.4 822.0,221.4 822.6,221.4 823.2,222.5 823.8,223.7 824.4,223.7 825.0,223.7 825.6,223.7 826.2,223.7 826.8,223.7 827.4,223.7 828.0,223.7 828.6,224.9 829.2,224.9 829.8,224.9 830.4,224.9 831.0,224.9 831.6,226.1 832.2,226.1 832.8,226.1 833.4,226.1 834.0,227.2 834.6,227.2 835.2,227.2 835.8,227.2 836.4,227.2 837.0,227.2 837.6,227.2 838.2,228.4 838.8,228.4 839.4,228.4 840.0,228.4 840.6,228.4 841.2,228.4 841.7,228.4 842.3,228.4 842.9,228.4 843.5,228.4 844.1,228.4 844.7,229.6 845.3,229.6 845.9,229.6 846.5,229.6 847.1,229.6 847.7,229.6 848.3,230.8 848.9,230.8 849.5,230.8 850.1,230.8 850.7,230.8 851.3,230.8 851.9,230.8 852.5,230.8 853.1,233.1 853.7,233.1 854.3,233.1 854.9,233.1 855.5,233.1 856.1,233.1 856.7,233.1 857.2,233.1 857.8,234.3 858.4,234.3 859.0,235.5 859.6,235.5 860.2,235.5 860.8,235.5 861.4,235.5 862.0,235.5 862.6,235.5 863.2,235.5 863.8,235.5 864.4,235.5 865.0,235.5 865.6,236.7 866.2,237.8 866.7,237.8 867.3,237.8 867.9,237.8 868.5,237.8 869.1,239.0 869.7,239.0 870.3,239.0 870.9,239.0 871.5,239.0 872.1,239.0 872.7,240.2 873.3,240.2 873.9,240.2 874.4,240.2 875.0,240.2 875.6,240.2 876.2,240.2 876.8,241.4 877.4,241.4 878.0,243.7 878.6,243.7 879.2,243.7 879.8,243.7 880.4,243.7 880.9,244.9 881.5,244.9 882.1,246.1 882.7,246.1 883.3,246.1 883.9,248.4 884.5,248.4 885.1,248.4 885.7,248.4 886.3,249.6 886.8,249.6 887.4,249.6 888.0,250.8 888.6,253.1 889.2,253.1 889.8,253.1 890.4,253.1 891.0,253.1 891.6,254.3 892.1,254.3 892.7,254.3 893.3,257.8 893.9,257.8 894.5,257.8 895.1,257.8 895.7,259.0 896.3,260.2 896.8,261.4 897.4,261.4 898.0,262.5 898.6,262.5 899.2,262.5 899.8,262.5" fill="none" stroke="#3a5fa8" stroke-width="2.0" stroke-linejoin="round"/><polyline points="80.5,350.8 81.1,350.8 81.7,350.8 82.4,350.8 83.0,346.1 83.6,346.1 84.2,346.1 84.8,346.1 85.4,346.1 86.0,346.1 86.7,343.8 87.3,343.8 87.9,341.4 88.5,341.4 89.1,341.4 89.7,341.4 90.3,341.4 90.9,341.4 91.6,339.0 92.2,339.0 92.8,339.0 93.4,339.0 94.0,336.7 94.6,336.7 95.2,336.7 95.9,336.7 96.5,334.3 97.1,334.3 97.7,334.3 98.3,334.3 98.9,327.3 99.6,327.3 100.2,327.3 100.8,327.3 101.4,324.9 102.0,324.9 102.6,322.6 103.2,322.6 103.9,320.2 104.5,320.2 105.1,320.2 105.7,320.2 106.3,317.9 106.9,317.9 107.6,313.2 108.2,313.2 108.8,310.8 109.4,310.8 110.0,308.4 110.6,308.4 111.3,304.9 111.9,304.9 112.5,300.2 113.1,300.2 113.7,295.5 114.3,295.5 115.0,295.5 115.6,295.5 116.2,293.1 116.8,293.1 117.4,288.4 118.0,288.4 118.7,286.1 119.3,286.1 119.9,281.4 120.5,281.4 121.1,279.0 121.7,279.0 122.4,276.7 123.0,276.7 123.6,274.3 124.2,274.3 124.8,272.0 125.4,272.0 126.1,264.9 126.7,264.9 127.3,262.5 127.9,262.5 128.5,261.4 129.2,260.2 129.8,259.0 130.4,259.0 131.0,255.5 131.6,255.5 132.2,253.1 132.9,253.1 133.5,250.8 134.1,250.8 134.7,249.6 135.3,249.6 136.0,244.9 136.6,244.9 137.2,242.5 137.8,241.4 138.4,240.2 139.1,240.2 139.7,239.0 140.3,239.0 140.9,236.7 141.5,236.7 142.2,236.7 142.8,236.7 143.4,235.5 144.0,235.5 144.6,235.5 145.3,234.3 145.9,231.9 146.5,231.9 147.1,231.9 147.7,231.9 148.4,231.9 149.0,231.9 149.6,230.8 150.2,230.8 150.8,230.8 151.5,230.8 152.1,229.6 152.7,229.6 153.3,229.6 153.9,229.6 154.6,228.4 155.2,228.4 155.8,227.2 156.4,227.2 157.0,227.2 157.7,227.2 158.3,227.2 158.9,227.2 159.5,224.9 160.2,224.9 160.8,222.5 161.4,222.5 162.0,221.4 162.6,221.4 163.3,219.0 163.9,219.0 164.5,216.6 165.1,216.6 165.7,216.6 166.4,215.5 167.0,214.3 167.6,214.3 168.2,213.1 168.9,211.9 169.5,210.8 170.1,210.8 170.7,209.6 171.3,209.6 172.0,208.4 172.6,207.2 173.2,207.2 173.8,206.1 174.5,206.1 175.1,204.9 175.7,203.7 176.3,203.7 177.0,202.5 177.6,202.5 178.2,201.3 178.8,201.3 179.4,200.2 180.1,200.2 180.7,199.0 181.3,197.8 181.9,196.6 182.6,195.5 183.2,194.3 183.8,193.1 184.4,191.9 185.1,191.9 185.7,190.8 186.3,189.6 186.9,188.4 187.6,187.2 188.2,187.2 188.8,184.9 189.4,183.7 190.0,183.7 190.7,182.5 191.3,181.3 191.9,181.3 192.5,180.2 193.2,180.2 193.8,177.8 194.4,179.0 195.0,177.8 195.7,177.8 196.3,176.6 196.9,176.6 197.5,174.3 198.2,174.3 198.8,173.1 199.4,174.3 200.0,173.1 200.7,171.9 201.3,170.7 201.9,171.9 202.5,170.7 203.2,174.3 203.8,173.1 204.4,173.1 205.0,173.1 205.7,171.9 206.3,170.7 206.9,169.6 207.5,169.6 208.2,166.0 208.8,164.9 209.4,124.8 210.0,123.7 210.7,121.3 211.3,120.1 211.9,120.1 212.6,119.0 213.2,121.3 213.8,120.1 214.4,121.3 215.1,120.1 215.7,121.3 216.3,120.1 216.9,121.3 217.6,120.1 218.2,123.7 218.8,122.5 219.4,124.8 220.1,123.7 220.7,126.0 221.3,124.8 221.9,126.0 222.6,124.8 223.2,130.7 223.8,129.6 224.5,135.4 225.1,134.3 225.7,137.8 226.3,136.6 227.0,139.0 227.6,137.8 228.2,142.5 228.8,141.3 229.5,141.3 230.1,140.1 230.7,141.3 231.3,140.1 232.0,142.5 232.6,142.5 233.2,146.0 233.9,144.9 234.5,146.0 235.1,146.0 235.7,147.2 236.4,147.2 237.0,148.4 237.6,148.4 238.3,153.1 238.9,153.1 239.5,154.3 240.1,154.3 240.8,155.4 241.4,155.4 242.0,157.8 242.6,156.6 243.3,159.0 243.9,157.8 244.5,159.0 245.2,159.0 245.8,161.3 246.4,161.3 247.0,164.9 247.7,164.9 248.3,166.0 248.9,164.9 249.6,166.0 250.2,166.0 250.8,166.0 251.4,166.0 252.1,168.4 252.7,167.2 253.3,170.7 254.0,169.6 254.6,170.7 255.2,170.7 255.8,171.9 256.5,171.9 257.1,176.6 257.7,175.5 258.4,176.6 259.0,175.5 259.6,176.6 260.2,176.6 260.9,177.8 261.5,177.8 262.1,180.2 262.8,180.2 263.4,179.0 264.0,179.0 264.6,177.8 265.3,177.8 265.9,176.6 266.5,175.5 267.2,175.5 267.8,174.3 268.4,174.3 269.1,174.3 269.7,174.3 270.3,173.1 270.9,173.1 271.6,171.9 272.2,171.9 272.8,171.9 273.5,170.7 274.1,169.6 274.7,169.6 275.3,168.4 276.0,168.4 276.6,168.4 277.2,167.2 277.9,167.2 278.5,166.0 279.1,166.0 279.8,166.0 280.4,166.0 281.0,164.9 281.6,164.9 282.3,163.7 282.9,163.7 283.5,163.7 284.2,163.7 284.8,163.7 285.4,163.7 286.1,162.5 286.7,162.5 287.3,162.5 288.0,162.5 288.6,161.3 289.2,161.3 289.8,160.2 290.5,160.2 291.1,159.0 291.7,159.0 292.4,159.0 293.0,159.0 293.6,157.8 294.3,157.8 294.9,157.8 295.5,157.8 296.1,156.6 296.8,156.6 297.4,155.4 298.0,155.4 298.7,155.4 299.3,155.4 299.9,155.4 300.6,154.3 301.2,154.3 301.8,154.3 302.5,154.3 303.1,153.1 303.7,153.1 304.4,153.1 305.0,153.1 305.6,153.1 306.2,151.9 306.9,151.9 307.5,151.9 308.1,151.9 308.8,150.7 309.4,150.7 310.0,150.7 310.7,150.7 311.3,150.7 311.9,150.7 312.6,150.7 313.2,150.7 313.8,149.6 314.5,149.6 315.1,149.6 315.7,149.6 316.3,149.6 317.0,149.6 317.6,148.4 318.2,148.4 318.9,148.4 319.5,148.4 320.1,147.2 320.8,147.2 321.4,147.2 322.0,147.2 322.7,146.0 323.3,146.0 323.9,146.0 324.6,146.0 325.2,146.0 325.8,146.0 326.5,144.9 327.1,144.9 327.7,144.9 328.3,144.9 329.0,144.9 329.6,144.9 330.2,143.7 330.9,143.7 331.5,143.7 332.1,143.7 332.8,142.5 333.4,142.5 334.0,142.5 334.7,142.5 335.3,142.5 335.9,142.5 336.6,141.3 337.2,141.3 337.8,141.3 338.5,141.3 339.1,141.3 339.7,141.3 340.4,141.3 341.0,141.3 341.6,140.1 342.3,140.1 342.9,140.1 343.5,139.0 344.2,139.0 344.8,139.0 345.4,139.0 346.0,139.0 346.7,139.0 347.3,139.0 347.9,137.8 348.6,137.8 349.2,137.8 349.8,137.8 350.5,137.8 351.1,137.8 351.7,137.8 352.4,137.8 353.0,136.6 353.6,137.8 354.3,136.6 354.9,136.6 355.5,136.6 356.2,136.6 356.8,135.4 357.4,135.4 358.1,135.4 358.7,135.4 359.3,135.4 360.0,135.4 360.6,135.4 361.2,135.4 361.9,135.4 362.5,135.4 363.1,135.4 363.8,135.4 364.4,134.3 365.0,134.3 365.7,134.3 366.3,134.3 366.9,134.3 367.6,134.3 368.2,135.4 368.8,135.4 369.5,134.3 370.1,134.3 370.7,134.3 371.4,134.3 372.0,134.3 372.6,134.3 373.3,134.3 373.9,134.3 374.5,134.3 375.2,134.3 375.8,134.3 376.4,134.3 377.1,134.3 377.7,134.3 378.3,134.3 379.0,134.3 379.6,134.3 380.2,134.3 380.9,134.3 381.5,134.3 382.1,134.3 382.7,134.3 383.4,134.3 384.0,134.3 384.6,134.3 385.3,133.1 385.9,133.1 386.5,134.3 387.2,134.3 387.8,134.3 388.4,134.3 389.1,134.3 389.7,134.3 390.3,134.3 391.0,135.4 391.6,135.4 392.2,134.3 392.9,134.3 393.5,135.4 394.1,136.6 394.8,135.4 395.4,135.4 396.0,134.3 396.7,135.4 397.3,135.4 397.9,135.4 398.6,135.4 399.2,135.4 399.8,135.4 400.5,136.6 401.1,136.6 401.7,136.6 402.4,136.6 403.0,136.6 403.6,136.6 404.3,136.6 404.9,136.6 405.5,136.6 406.2,136.6 406.8,137.8 407.4,137.8 408.1,137.8 408.7,137.8 409.3,139.0 410.0,139.0 410.6,139.0 411.2,139.0 411.9,140.1 412.5,139.0 413.1,140.1 413.8,140.1 414.4,139.0 415.0,140.1 415.7,140.1 416.3,140.1 416.9,140.1 417.6,140.1 418.2,139.0 418.8,140.1 419.5,140.1 420.1,141.3 420.7,141.3 421.4,141.3 422.0,141.3 422.6,141.3 423.3,141.3 423.9,141.3 424.5,142.5 425.2,141.3 425.8,141.3 426.4,142.5 427.1,142.5 427.7,142.5 428.3,142.5 429.0,142.5 429.6,142.5 430.2,143.7 430.9,143.7 431.5,143.7 432.1,143.7 432.8,143.7 433.4,143.7 434.0,143.7 434.7,143.7 435.3,143.7 435.9,143.7 436.6,144.9 437.2,144.9 437.8,144.9 438.5,144.9 439.1,144.9 439.7,144.9 440.4,144.9 441.0,146.0 441.6,146.0 442.3,146.0 442.9,146.0 443.5,146.0 444.2,146.0 444.8,146.0 445.4,146.0 446.1,146.0 446.7,146.0 447.3,146.0 448.0,144.9 448.6,144.9 449.2,144.9 449.9,146.0 450.5,146.0 451.1,146.0 451.8,146.0 452.4,146.0 453.0,146.0 453.7,144.9 454.3,146.0 454.9,146.0 455.6,146.0 456.2,146.0 456.8,146.0 457.5,146.0 458.1,146.0 458.7,146.0 459.3,146.0 460.0,144.9 460.6,146.0 461.2,146.0 461.9,146.0 462.5,146.0 463.1,144.9 463.8,144.9 464.4,144.9 465.0,144.9 465.7,144.9 466.3,144.9 466.9,146.0 467.6,144.9 468.2,144.9 468.8,144.9 469.5,144.9 470.1,144.9 470.7,144.9 471.4,144.9 472.0,144.9 472.6,144.9 473.3,144.9 473.9,144.9 474.5,143.7 475.2,143.7 475.8,143.7 476.4,143.7 477.1,143.7 477.7,143.7 478.3,143.7 479.0,143.7 479.6,143.7 480.2,144.9 480.9,143.7 481.5,143.7 482.1,144.9 482.7,144.9 483.4,144.9 484.0,144.9 484.6,144.9 485.3,144.9 485.9,144.9 486.5,144.9 487.2,144.9 487.8,144.9 488.4,144.9 489.1,144.9 489.7,144.9 490.3,144.9 491.0,144.9 491.6,144.9 492.2,144.9 492.9,144.9 493.5,144.9 494.1,144.9 494.8,144.9 495.4,144.9 496.0,144.9 496.7,144.9 497.3,144.9 497.9,144.9 498.5,144.9 499.2,144.9 499.8,144.9 500.4,144.9 501.1,144.9 501.7,144.9 502.3,143.7 503.0,143.7 503.6,143.7 504.2,143.7 504.9,143.7 505.5,144.9 506.1,144.9 506.8,144.9 507.4,144.9 508.0,144.9 508.7,144.9 509.3,144.9 509.9,144.9 510.5,144.9 511.2,146.0 511.8,146.0 512.4,146.0 513.1,146.0 513.7,146.0 514.3,146.0 515.0,147.2 515.6,147.2 516.2,147.2 516.9,147.2 517.5,147.2 518.1,147.2 518.8,147.2 519.4,147.2 520.0,148.4 520.6,148.4 521.3,148.4 521.9,149.6 522.5,149.6 523.2,149.6 523.8,149.6 524.4,149.6 525.1,149.6 525.7,149.6 526.3,150.7 527.0,150.7 527.6,150.7 528.2,150.7 528.8,150.7 529.5,150.7 530.1,150.7 530.7,150.7 531.4,151.9 532.0,151.9 532.6,151.9 533.3,153.1 533.9,153.1 534.5,153.1 535.1,153.1 535.8,153.1 536.4,153.1 537.0,153.1 537.7,153.1 538.3,153.1 538.9,154.3 539.6,154.3 540.2,154.3 540.8,154.3 541.4,154.3 542.1,154.3 542.7,154.3 543.3,154.3 544.0,155.4 544.6,155.4 545.2,155.4 545.9,155.4 546.5,156.6 547.1,156.6 547.7,156.6 548.4,156.6 549.0,157.8 549.6,157.8 550.3,157.8 550.9,159.0 551.5,159.0 552.2,159.0 552.8,160.2 553.4,160.2 554.0,160.2 554.7,160.2 555.3,161.3 555.9,161.3 556.6,161.3 557.2,161.3 557.8,161.3 558.4,162.5 559.1,162.5 559.7,162.5 560.3,163.7 561.0,163.7 561.6,164.9 562.2,164.9 562.8,166.0 563.5,166.0 564.1,166.0 564.7,166.0 565.4,167.2 566.0,167.2 566.6,168.4 567.3,168.4 567.9,169.6 568.5,169.6 569.1,169.6 569.8,170.7 570.4,170.7 571.0,170.7 571.6,170.7 572.3,171.9 572.9,171.9 573.5,173.1 574.2,173.1 574.8,173.1 575.4,174.3 576.0,174.3 576.7,174.3 577.3,175.5 577.9,175.5 578.6,175.5 579.2,176.6 579.8,176.6 580.4,177.8 581.1,177.8 581.7,177.8 582.3,177.8 583.0,180.2 583.6,180.2 584.2,181.3 584.8,181.3 585.5,181.3 586.1,182.5 586.7,182.5 587.3,183.7 588.0,183.7 588.6,183.7 589.2,184.9 589.9,184.9 590.5,186.0 591.1,186.0 591.7,187.2 592.4,188.4 593.0,189.6 593.6,189.6 594.2,190.8 594.9,190.8 595.5,191.9 596.1,191.9 596.8,193.1 597.4,194.3 598.0,194.3 598.6,195.5 599.3,195.5 599.9,196.6 600.5,197.8 601.1,199.0 601.8,199.0 602.4,200.2 603.0,200.2 603.6,201.3 604.3,202.5 604.9,202.5 605.5,202.5 606.1,202.5 606.8,203.7 607.4,203.7 608.0,204.9 608.6,204.9 609.3,207.2 609.9,207.2 610.5,208.4 611.2,208.4 611.8,209.6 612.4,209.6 613.0,209.6 613.7,209.6 614.3,210.8 614.9,210.8 615.5,210.8 616.2,211.9 616.8,211.9 617.4,213.1 618.0,213.1 618.7,213.1 619.3,214.3 619.9,214.3 620.5,214.3 621.2,214.3 621.8,215.5 622.4,215.5 623.0,215.5 623.7,216.6 624.3,217.8 624.9,217.8 625.5,219.0 626.2,219.0 626.8,219.0 627.4,219.0 628.0,220.2 628.7,220.2 629.3,221.4 629.9,221.4 630.5,222.5 631.1,223.7 631.8,223.7 632.4,223.7 633.0,223.7 633.6,224.9 634.3,226.1 634.9,226.1 635.5,227.2 636.1,227.2 636.8,227.2 637.4,228.4 638.0,228.4 638.6,229.6 639.3,230.8 639.9,230.8 640.5,231.9 641.1,231.9 641.7,233.1 642.4,233.1 643.0,234.3 643.6,234.3 644.2,234.3 644.9,234.3 645.5,235.5 646.1,235.5 646.7,236.7 647.4,236.7 648.0,239.0 648.6,239.0 649.2,240.2 649.8,240.2 650.5,240.2 651.1,240.2 651.7,241.4 652.3,240.2 653.0,243.7 653.6,243.7 654.2,244.9 654.8,243.7 655.4,244.9 656.1,244.9 656.7,246.1 657.3,246.1 657.9,249.6 658.6,248.4 659.2,249.6 659.8,249.6 660.4,249.6 661.0,249.6 661.7,250.8 662.3,250.8 662.9,254.3 663.5,253.1 664.1,254.3 664.8,254.3 665.4,255.5 666.0,255.5 666.6,257.8 667.3,256.7 667.9,260.2 668.5,259.0 669.1,260.2 669.7,260.2 670.4,259.0 671.0,259.0 671.6,257.8 672.2,257.8 672.8,252.0 673.5,252.0 674.1,248.4 674.7,248.4 675.3,244.9 675.9,244.9 676.6,240.2 677.2,240.2 677.8,234.3 678.4,234.3 679.0,233.1 679.7,233.1 680.3,230.8 680.9,230.8 681.5,227.2 682.1,228.4 682.8,224.9 683.4,224.9 684.0,222.5 684.6,222.5 685.2,221.4 685.8,221.4 686.5,217.8 687.1,217.8 687.7,215.5 688.3,215.5 688.9,214.3 689.6,214.3 690.2,211.9 690.8,211.9 691.4,208.4 692.0,209.6 692.7,208.4 693.3,208.4 693.9,206.1 694.5,206.1 695.1,204.9 695.7,204.9 696.4,202.5 697.0,202.5 697.6,202.5 698.2,202.5 698.8,201.3 699.4,201.3 700.1,201.3 700.7,201.3 701.3,199.0 701.9,199.0 702.5,197.8 703.2,197.8 703.8,196.6 704.4,196.6 705.0,195.5 705.6,196.6 706.2,194.3 706.9,194.3 707.5,193.1 708.1,193.1 708.7,191.9 709.3,191.9 709.9,190.8 710.6,191.9 711.2,190.8 711.8,190.8 712.4,189.6 713.0,189.6 713.6,189.6 714.2,189.6 714.9,189.6 715.5,189.6 716.1,188.4 716.7,188.4 717.3,188.4 717.9,188.4 718.6,188.4 719.2,188.4 719.8,187.2 720.4,188.4 721.0,187.2 721.6,187.2 722.2,187.2 722.9,187.2 723.5,187.2 724.1,187.2 724.7,187.2 725.3,187.2 725.9,187.2 726.5,187.2 727.2,187.2 727.8,187.2 728.4,187.2 729.0,188.4 729.6,188.4 730.2,188.4 730.8,187.2 731.5,187.2 732.1,187.2 732.7,187.2 733.3,187.2 733.9,187.2 734.5,187.2 735.1,188.4 735.8,188.4 736.4,188.4 737.0,188.4 737.6,188.4 738.2,188.4 738.8,188.4 739.4,188.4 740.0,188.4 740.7,188.4 741.3,188.4 741.9,188.4 742.5,188.4 743.1,188.4 743.7,189.6 744.3,188.4 744.9,188.4 745.6,189.6 746.2,189.6 746.8,189.6 747.4,189.6 748.0,188.4 748.6,189.6 749.2,188.4 749.8,188.4 750.4,188.4 751.1,188.4 751.7,188.4 752.3,188.4 752.9,188.4 753.5,188.4 754.1,188.4 754.7,188.4 755.3,188.4 755.9,188.4 756.6,187.2 757.2,187.2 757.8,186.0 758.4,186.0 759.0,186.0 759.6,186.0 760.2,186.0 760.8,187.2 761.4,187.2 762.0,187.2 762.7,187.2 763.3,187.2 763.9,187.2 764.5,187.2 765.1,188.4 765.7,188.4 766.3,188.4 766.9,188.4 767.5,188.4 768.1,188.4 768.7,188.4 769.4,188.4 770.0,188.4 770.6,188.4 771.2,188.4 771.8,188.4 772.4,188.4 773.0,189.6 773.6,189.6 774.2,189.6 774.8,189.6 775.4,190.8 776.0,190.8 776.7,190.8 777.3,190.8 777.9,190.8 778.5,190.8 779.1,190.8 779.7,191.9 780.3,191.9 780.9,191.9 781.5,193.1 782.1,193.1 782.7,193.1 783.3,193.1 783.9,193.1 784.5,193.1 785.2,193.1 785.8,194.3 786.4,194.3 787.0,194.3 787.6,194.3 788.2,194.3 788.8,194.3 789.4,194.3 790.0,194.3 790.6,195.5 791.2,196.6 791.8,199.0 792.4,200.2 793.0,203.7 793.6,203.7 794.2,213.1 794.8,213.1 795.5,215.5 796.1,216.6 796.7,217.8 797.3,217.8 797.9,217.8 798.5,219.0 799.1,219.0 799.7,219.0 800.3,220.2 800.9,220.2 801.5,221.4 802.1,221.4 802.7,221.4 803.3,221.4 803.9,222.5 804.5,222.5 805.1,222.5 805.7,222.5 806.3,223.7 806.9,223.7 807.5,223.7 808.1,223.7 808.7,223.7 809.3,223.7 809.9,224.9 810.5,224.9 811.1,224.9 811.8,224.9 812.4,226.1 813.0,226.1 813.6,227.2 814.2,227.2 814.8,227.2 815.4,227.2 816.0,229.6 816.6,229.6 817.2,229.6 817.8,231.9 818.4,231.9 819.0,231.9 819.6,231.9 820.2,231.9 820.8,233.1 821.4,233.1 822.0,234.3 822.6,234.3 823.2,234.3 823.8,235.5 824.4,235.5 825.0,235.5 825.6,235.5 826.2,235.5 826.8,236.7 827.4,236.7 828.0,236.7 828.6,237.8 829.2,237.8 829.8,237.8 830.4,240.2 831.0,240.2 831.6,240.2 832.2,241.4 832.8,241.4 833.4,241.4 834.0,242.5 834.6,242.5 835.2,242.5 835.8,242.5 836.4,242.5 837.0,243.7 837.6,243.7 838.2,244.9 838.8,246.1 839.4,246.1 840.0,247.2 840.6,247.2 841.2,247.2 841.7,247.2 842.3,248.4 842.9,248.4 843.5,248.4 844.1,250.8 844.7,250.8 845.3,250.8 845.9,252.0 846.5,252.0 847.1,252.0 847.7,252.0 848.3,253.1 848.9,253.1 849.5,253.1 850.1,253.1 850.7,255.5 851.3,255.5 851.9,255.5 852.5,255.5 853.1,255.5 853.7,255.5 854.3,255.5 854.9,255.5 855.5,256.7 856.1,256.7 856.7,256.7 857.2,256.7 857.8,256.7 858.4,256.7 859.0,257.8 859.6,257.8 860.2,257.8 860.8,257.8 861.4,257.8 862.0,257.8 862.6,257.8 863.2,257.8 863.8,257.8 864.4,257.8 865.0,257.8 865.6,257.8 866.2,257.8 866.7,257.8 867.3,257.8 867.9,257.8 868.5,257.8 869.1,257.8 869.7,257.8 870.3,257.8 870.9,257.8 871.5,257.8 872.1,257.8 872.7,257.8 873.3,257.8 873.9,257.8 874.4,256.7 875.0,256.7 875.6,257.8 876.2,257.8 876.8,257.8 877.4,257.8 878.0,257.8 878.6,257.8 879.2,257.8 879.8,257.8 880.4,257.8 880.9,257.8 881.5,257.8 882.1,257.8 882.7,257.8 883.3,257.8 883.9,257.8 884.5,257.8 885.1,257.8 885.7,257.8 886.3,259.0 886.8,259.0 887.4,259.0 888.0,259.0 888.6,259.0 889.2,260.2 889.8,260.2 890.4,261.4 891.0,261.4 891.6,261.4 892.1,261.4 892.7,261.4 893.3,262.5 893.9,262.5 894.5,263.7 895.1,263.7 895.7,263.7 896.3,263.7 896.8,266.1 897.4,266.1 898.0,269.6 898.6,269.6 899.2,269.6 899.8,269.6" fill="none" stroke="#b03a3a" stroke-width="2.0" stroke-linejoin="round"/><line x1="859.4" y1="256.7" x2="859.4" y2="234.5" stroke="#c8891f" stroke-width="2.4"/><text x="851.4" y="282.7" font-family="Segoe UI,Helvetica Neue,Arial,sans-serif" font-size="11.5" fill="#c8891f" xml:space="preserve" text-anchor="end" font-weight="700">19 counts — the whole verdict</text><text x="131.2" y="207.2" font-family="Segoe UI,Helvetica Neue,Arial,sans-serif" font-size="11.0" fill="#3a5fa8" xml:space="preserve" text-anchor="middle">96 counts</text><text x="90.0" y="448.0" font-family="Segoe UI,Helvetica Neue,Arial,sans-serif" font-size="12.0" fill="#3a5fa8" xml:space="preserve" font-weight="700">reference</text><text x="90.0" y="468.0" font-family="Segoe UI,Helvetica Neue,Arial,sans-serif" font-size="12.0" fill="#b03a3a" xml:space="preserve" font-weight="700">sample</text><text x="200.0" y="448.0" font-family="Segoe UI,Helvetica Neue,Arial,sans-serif" font-size="11.5" fill="#1c211c" xml:space="preserve">The Soret gap is 96 counts and the red gap is 19. `Rv` is built on the second one.</text><text x="200.0" y="468.0" font-family="Segoe UI,Helvetica Neue,Arial,sans-serif" font-size="11.5" fill="#5c655c" xml:space="preserve">The dip at 580 nm is the green/red Bayer crossover — a hole in the sensor, not in the lamp.</text><text x="200.0" y="488.0" font-family="Segoe UI,Helvetica Neue,Arial,sans-serif" font-size="11.5" fill="#5c655c" xml:space="preserve">No filter in front of the lamp can fill it.</text></svg>