<svg xmlns="http://www.w3.org/2000/svg" width="491.20000000000005" height="552" viewBox="0 0 491.20000000000005 552" font-family="system-ui, -apple-system, &quot;Segoe UI&quot;, Roboto, sans-serif" font-size="14" id="bench"><rect x="0" y="0" width="491.20000000000005" height="552" fill="#1e1e1e" /><rect x="0.5" y="0.5" width="490.20000000000005" height="551" fill="none" stroke="#8a8a8a" stroke-width="1.25" /><line x1="0" y1="36" x2="491.20000000000005" y2="36" stroke="#555555" stroke-width="1" /><text x="245.60000000000002" y="23.333333333333332" text-anchor="middle" font-size="16" font-weight="600" fill="#e0e0e0">Measurement bench</text><line x1="16" y1="87.5" x2="475.20000000000005" y2="87.5" stroke="#555555" stroke-width="1" /><text x="30" y="74.66666666666667" font-weight="600" fill="#f0f0f0">Acquisition</text><line x1="20" y1="86" x2="119.2" y2="86" stroke="#d4d4d4" stroke-width="2" /><text x="139.2" y="74.66666666666667" font-weight="400" fill="#707780">Processing</text><text x="241.2" y="74.66666666666667" font-weight="400" fill="#707780">Evaluation</text><line x1="16" y1="131.5" x2="475.20000000000005" y2="131.5" stroke="#555555" stroke-width="1" /><text x="30" y="118.66666666666667" font-weight="600" fill="#f0f0f0">Reference</text><line x1="20" y1="130" x2="104.8" y2="130" stroke="#d4d4d4" stroke-width="2" /><text x="124.8" y="118.66666666666667" font-weight="400" fill="#707780">Sample</text><rect x="16.5" y="140.5" width="458.20000000000005" height="355" fill="none" stroke="#6b6b6b" stroke-width="1" stroke-dasharray="4 3" rx="2" /><line x1="28" y1="187.5" x2="463.20000000000005" y2="187.5" stroke="#555555" stroke-width="1" /><text x="42" y="174.66666666666666" font-weight="400" fill="#707780">Captured image</text><text x="172.8" y="174.66666666666666" font-weight="600" fill="#f0f0f0">Spectrum</text><line x1="162.8" y1="186" x2="240.4" y2="186" stroke="#d4d4d4" stroke-width="2" /><rect x="28.5" y="196.5" width="434.20000000000005" height="287" fill="none" stroke="#6b6b6b" stroke-width="1" stroke-dasharray="4 3" rx="2" /><text x="40" y="223" fill="#8a9099">Reference plot  400-650 nm</text><rect x="40.5" y="236.5" width="219" height="119" fill="#252525" stroke="#6b6b6b" stroke-width="1" stroke-dasharray="4 3" rx="3" /><rect x="64.25" y="305.6" width="24.5" height="38.400000000000006" fill="#8a9099" opacity="0.75" /><rect x="113.25" y="272" width="24.5" height="72" fill="#8a9099" opacity="0.75" /><rect x="162.25" y="291.2" width="24.5" height="52.800000000000004" fill="#8a9099" opacity="0.75" /><rect x="211.25" y="257.6" width="24.5" height="86.4" fill="#8a9099" opacity="0.75" /><text x="40" y="379" fill="#e0e0e0">Frames</text><g opacity="1"><rect x="91.7" y="364.5" width="219" height="31" fill="#1e1e1e" stroke="#6b6b6b" stroke-width="1" rx="2" /><text x="103.2" y="384.6666666666667" fill="#6b7075">20</text></g><text x="40" y="419" fill="#e0e0e0">Exposure</text><rect x="105.6" y="416" width="220" height="4" fill="#404040" rx="2" /><rect x="105.6" y="416" width="66" height="4" fill="#a0a4ac" rx="2" /><circle cx="171.6" cy="418" r="7" fill="#d4d4d4" stroke="#1e1e1e" stroke-width="1.5" /><g opacity="1"><rect x="334.1" y="406.5" width="15" height="15" rx="2" fill="#252525" stroke="#8a9099" stroke-width="1.2" /><text x="357.6" y="418.6666666666667" fill="#e0e0e0">auto-exposure</text></g><g opacity="1"><rect x="40.5" y="440.5" width="153.4" height="31" fill="#d4d4d4" stroke="#b0b0b0" stroke-width="1.25" rx="3" /><text x="117.2" y="460.6666666666667" text-anchor="middle" font-weight="500" fill="#1e1e1e">Capture reference</text></g><g opacity="1"><rect x="16.5" y="504.5" width="59.8" height="31" fill="#2a2a2a" stroke="#b0b0b0" stroke-width="1.25" rx="3" /><text x="46.4" y="524.6666666666666" text-anchor="middle" font-weight="500" fill="#e0e0e0">Back</text></g><g opacity="1"><rect x="85.3" y="504.5" width="74.2" height="31" fill="#2a2a2a" stroke="#b0b0b0" stroke-width="1.25" rx="3" /><text x="122.4" y="524.6666666666666" text-anchor="middle" font-weight="500" fill="#e0e0e0">Cancel</text></g><g opacity="1"><rect x="168.5" y="504.5" width="59.8" height="31" fill="#d4d4d4" stroke="#b0b0b0" stroke-width="1.25" rx="3" /><text x="198.4" y="524.6666666666666" text-anchor="middle" font-weight="500" fill="#1e1e1e">Next</text></g></svg>